<svg width="56" height="46" viewBox="0 0 56 46" fill="none" xmlns="http://www.w3.org/2000/svg">
<g opacity="0.3">
<path d="M17.9487 15.7742C17.9487 15.6517 17.9487 13.8691 17.9487 13.8691H16.8998C16.8998 13.8691 16.8998 15.624 16.8998 15.6794C16.8998 16.0035 16.6024 16.2209 16.1014 16.2209C15.5769 16.2209 15.2912 16.0114 15.2912 15.6754C15.2912 15.6201 15.2912 13.8691 15.2912 13.8691H14.2305C14.2305 13.8691 14.2305 15.5331 14.2305 15.6754C14.2305 16.6161 14.9937 17.0153 16.0583 17.0153C17.1973 17.0153 17.9487 16.6122 17.9487 15.7742Z" fill="#0A0A0A"/>
<path d="M21.4814 16.9718V16.1458H19.6105V13.8691H18.5498V16.9718H21.4814Z" fill="#0A0A0A"/>
<path d="M24.634 14.6478V13.8691H20.9666V14.6478H22.262V16.9718H23.3345V14.6478H24.634Z" fill="#0A0A0A"/>
<path d="M26.0439 16.9718V13.8691H24.9675V16.9718H26.0439Z" fill="#0A0A0A"/>
<path d="M30.982 16.9718V13.8691H29.6551L28.8175 15.7308L28.0191 13.8691H26.6492V16.9718H27.6472V15.296L28.3674 16.9718H29.2598L29.9878 15.296V16.9718H30.982Z" fill="#0A0A0A"/>
<path d="M32.6446 16.3987H34.3041L34.5742 16.9718H35.7053L34.1554 13.8691H32.8912L31.2512 16.9718H32.3588L32.6446 16.3987ZM33.9714 15.7031H32.989L33.3765 14.9561L33.4939 14.6715L33.6035 14.9521L33.9714 15.7031Z" fill="#0A0A0A"/>
<path d="M39.032 14.6478V13.8691H35.3647V14.6478H36.6602V16.9718H37.7327V14.6478H39.032Z" fill="#0A0A0A"/>
<path d="M42.5985 16.9718V16.2011H40.3956V15.7979H42.5085V15.043H40.3956V14.6438H42.5714V13.8691H39.3623V16.9718H42.5985Z" fill="#0A0A0A"/>
<path d="M22.2296 18.6211H21.2158C21.2158 18.6211 20.5543 20.5736 20.5543 20.621C20.5543 20.5736 19.9359 18.6211 19.9359 18.6211H18.8361C18.8361 18.6211 18.2216 20.5736 18.2216 20.621C18.2216 20.5736 17.5562 18.6211 17.5562 18.6211H16.4172L17.568 21.7238H18.7148C18.7148 21.7238 19.3332 19.8701 19.3371 19.8187C19.341 19.8701 19.9555 21.7238 19.9555 21.7238H21.1062L22.2296 18.6211Z" fill="#0A0A0A"/>
<path d="M23.6169 21.7238V18.6211H22.5405V21.7238H23.6169Z" fill="#0A0A0A"/>
<path d="M27.8035 21.7238V18.6211H26.8015V20.3088L25.326 18.6211H24.2222V21.7238H25.232V19.9965L26.7546 21.7238H27.8035Z" fill="#0A0A0A"/>
<path d="M31.9965 21.7238V18.6211H30.9946V20.3088L29.519 18.6211H28.4153V21.7238H29.4251V19.9965L30.9476 21.7238H31.9965Z" fill="#0A0A0A"/>
<path d="M35.8453 21.7238V20.9531H33.6417V20.5499H35.7552V19.795H33.6417V19.3958H35.8179V18.6211H32.6084V21.7238H35.8453Z" fill="#0A0A0A"/>
<path d="M39.9826 19.5657C39.9826 19.2851 39.9158 19.0835 39.7748 18.9373C39.5909 18.7397 39.2741 18.6211 38.7885 18.6211H36.3425V21.7238H37.3876V20.629H38.3387L39.1021 21.7238H40.2684L39.341 20.459C39.548 20.4274 39.7167 20.3009 39.8258 20.1507C39.9237 20.0124 39.9826 19.8068 39.9826 19.5657ZM38.9652 19.6645C38.9652 19.716 38.9572 19.7792 38.9294 19.8266C38.8904 19.9056 38.7885 19.9373 38.6205 19.9373H37.3915V19.372H38.6006C38.7654 19.372 38.8752 19.3997 38.9294 19.5025C38.9572 19.542 38.9652 19.6053 38.9652 19.6645Z" fill="#0A0A0A"/>
<path d="M18.3903 24.7759C18.3903 24.7252 18.3903 23.2598 18.3903 23.2598H18.0238C18.0238 23.2598 18.0238 24.7191 18.0238 24.752C18.0238 25.1042 17.6957 25.3042 17.2228 25.3042C16.6643 25.3042 16.3894 25.0893 16.3894 24.7491C16.3894 24.7162 16.3894 23.2598 16.3894 23.2598H16.02C16.02 23.2598 16.02 24.6804 16.02 24.7371C16.02 25.3579 16.4988 25.6324 17.2081 25.6324C17.941 25.6324 18.3903 25.3399 18.3903 24.7759Z" fill="#0A0A0A"/>
<path d="M21.0196 25.6026V25.2594H19.4207V23.2598H19.0513V25.6026H21.0196Z" fill="#0A0A0A"/>
<path d="M23.1189 23.6V23.2598H20.6541V23.6H21.7003V25.6026H22.0727V23.6H23.1189Z" fill="#0A0A0A"/>
<path d="M25.7456 23.9223C25.7456 23.7552 25.7101 23.6328 25.6481 23.5343C25.5387 23.3701 25.3288 23.2598 24.9801 23.2598H23.4788V25.6026H23.8423V24.6147H24.9003L25.5475 25.6026H25.9731L25.2727 24.552C25.45 24.5312 25.5889 24.4297 25.6628 24.2984C25.716 24.2088 25.7456 24.0775 25.7456 23.9223ZM25.3791 23.9521C25.3791 24.0178 25.3643 24.0984 25.3377 24.1521C25.2904 24.2386 25.1811 24.2834 25.0038 24.2864H23.8452C23.8452 24.2804 23.8452 23.594 23.8452 23.594H24.9358C25.1574 23.594 25.2756 23.6477 25.3377 23.7492C25.3643 23.797 25.3791 23.8775 25.3791 23.9521Z" fill="#0A0A0A"/>
<path d="M26.7973 25.0236H28.2425L28.538 25.6026H28.9341L27.7578 23.2598H27.3233L26.1086 25.6026H26.4958L26.7973 25.0236ZM28.0888 24.6923H26.9569L27.4267 23.794L27.5302 23.5761L27.6337 23.794L28.0888 24.6923Z" fill="#0A0A0A"/>
<path d="M32.6822 25.3788C32.7738 25.2713 32.8152 25.1191 32.8152 24.9549C32.8152 24.7998 32.7708 24.6445 32.6792 24.549C32.5876 24.4596 32.4398 24.385 32.2773 24.37C32.3718 24.355 32.4457 24.2954 32.4959 24.2327C32.5758 24.1402 32.623 23.9909 32.623 23.8417C32.623 23.6835 32.5758 23.5403 32.4752 23.4418C32.3659 23.3314 32.1797 23.2598 31.9197 23.2598H30.3591V25.6026H32.0349C32.3482 25.6026 32.5669 25.522 32.6822 25.3788ZM32.2418 23.9163C32.2418 24.0208 32.2093 24.1133 32.1531 24.167C32.0969 24.2297 32.0024 24.2566 31.9019 24.2566H30.7197V23.5821H31.8339C31.9699 23.5821 32.0733 23.6089 32.1442 23.6746C32.2063 23.7342 32.2418 23.8208 32.2418 23.9163ZM32.36 25.1519C32.2861 25.2355 32.159 25.2773 31.9728 25.2773H30.7197V24.5819H31.9817C32.1531 24.5819 32.2714 24.6177 32.3423 24.6863C32.4073 24.7491 32.4339 24.8296 32.4339 24.9221C32.4339 25.0176 32.4132 25.0982 32.36 25.1519Z" fill="#0A0A0A"/>
<path d="M35.4986 25.6026V25.2594H33.6958V24.5908H35.4277V24.2506H33.6958V23.6H35.4779V23.2598H33.3352V25.6026H35.4986Z" fill="#0A0A0A"/>
<path d="M38.3854 24.9099C38.3854 24.5278 38.1346 24.3309 37.5169 24.2592C37.4131 24.2444 37.1885 24.2205 37.0673 24.2055C36.494 24.1369 36.3196 24.0593 36.3196 23.8594C36.3196 23.6654 36.5117 23.5549 37.091 23.5549C37.54 23.5549 37.7708 23.6445 37.8863 23.8056C37.9189 23.8504 37.9364 23.9041 37.9452 23.9459H38.3408C38.3297 23.8772 38.3026 23.7817 38.2612 23.7041C38.102 23.4266 37.774 23.2266 37.091 23.2266C36.2753 23.2236 35.9384 23.5221 35.9384 23.8922C35.9384 24.2622 36.2014 24.4503 36.8841 24.5309C37.0023 24.5458 37.2121 24.5696 37.3156 24.5816C37.8449 24.6472 38.0104 24.7279 38.0104 24.9517C38.0104 25.1576 37.821 25.3068 37.2151 25.3068C36.7186 25.3068 36.4526 25.2173 36.3462 25.0442C36.3137 24.9964 36.293 24.9218 36.2901 24.8711H35.8999C35.9088 24.9785 35.9384 25.0949 35.9915 25.1875C36.1453 25.471 36.5058 25.6352 37.2033 25.6352C38.0367 25.6352 38.3854 25.3635 38.3854 24.9099Z" fill="#0A0A0A"/>
<path d="M41.0358 23.6V23.2598H38.571V23.6H39.6171V25.6026H39.9897V23.6H41.0358Z" fill="#0A0A0A"/>
<path d="M14.9735 27.6395C14.9735 27.4008 14.9262 27.2396 14.8463 27.1172C14.7341 26.9411 14.5153 26.8486 14.1341 26.8486H12.6682V29.1915H13.0347V28.4274C13.0347 28.4274 14.0691 28.4274 14.1193 28.4274C14.477 28.4244 14.7222 28.3409 14.8523 28.1499C14.935 28.0335 14.9735 27.8663 14.9735 27.6395ZM14.6011 27.6395C14.6011 27.7588 14.5892 27.8484 14.5508 27.9081C14.4828 28.0185 14.3439 28.0872 14.0573 28.0872C14.0307 28.0872 13.0347 28.0872 13.0347 28.0872V27.1829H14.0691C14.338 27.1829 14.477 27.2455 14.5508 27.3679C14.5863 27.4216 14.6011 27.5202 14.6011 27.6395Z" fill="#0A0A0A"/>
<path d="M17.649 29.1915V28.8483H15.8462V28.1797H17.5781V27.8395H15.8462V27.1889H17.6283V26.8486H15.4856V29.1915H17.649Z" fill="#0A0A0A"/>
<path d="M20.468 27.5112C20.468 27.344 20.4326 27.2217 20.3705 27.1232C20.2611 26.959 20.0513 26.8486 19.7025 26.8486H18.2012V29.1915H18.5647V28.2036H19.6228L20.27 29.1915H20.6956L19.9951 28.1409C20.1725 28.1201 20.3114 28.0185 20.3853 27.8872C20.4385 27.7977 20.468 27.6664 20.468 27.5112ZM20.1015 27.541C20.1015 27.6067 20.0867 27.6873 20.0601 27.741C20.0129 27.8275 19.9035 27.8723 19.7262 27.8753H18.5676C18.5676 27.8693 18.5676 27.1829 18.5676 27.1829H19.6582C19.8798 27.1829 19.9981 27.2366 20.0601 27.3381C20.0867 27.3858 20.1015 27.4664 20.1015 27.541Z" fill="#0A0A0A"/>
<path d="M23.2082 27.1889V26.8486H21.1453V29.1915H21.5117V28.1947H23.1314V27.8454H21.5117V27.1889H23.2082Z" fill="#0A0A0A"/>
<path d="M24.8901 26.8066C24.3966 26.8066 24.0567 26.929 23.8143 27.1857C23.6104 27.3856 23.5217 27.6632 23.5217 28.0124C23.5217 28.3944 23.637 28.6809 23.8498 28.8749C24.0774 29.1048 24.4261 29.2241 24.8901 29.2241C25.3689 29.2241 25.7413 29.1048 25.963 28.8629C26.1551 28.666 26.2555 28.3855 26.2555 28.0094C26.2555 27.6453 26.1698 27.3677 25.9659 27.1707C25.7324 26.926 25.3836 26.8066 24.8901 26.8066ZM24.8901 28.8899C24.565 28.8899 24.3345 28.8182 24.1601 28.675C23.9828 28.5288 23.8971 28.3049 23.8971 28.0183C23.8971 27.7497 23.971 27.5259 24.1128 27.3916C24.2754 27.2364 24.5236 27.1439 24.8872 27.1439C25.2625 27.1439 25.496 27.2334 25.6703 27.3886C25.8182 27.52 25.8831 27.7527 25.8831 28.0154C25.8831 28.281 25.8152 28.5078 25.6644 28.6451C25.4901 28.8092 25.2448 28.8899 24.8901 28.8899Z" fill="#0A0A0A"/>
<path d="M29.0285 27.5112C29.0285 27.344 28.993 27.2217 28.931 27.1232C28.8216 26.959 28.6118 26.8486 28.2631 26.8486H26.7617V29.1915H27.1252V28.2036H28.1832L28.8305 29.1915H29.2561L28.5557 28.1409C28.7329 28.1201 28.8719 28.0185 28.9457 27.8872C28.999 27.7977 29.0285 27.6664 29.0285 27.5112ZM28.662 27.541C28.662 27.6067 28.6473 27.6873 28.6207 27.741C28.5734 27.8275 28.464 27.8723 28.2867 27.8753H27.1282C27.1282 27.8693 27.1282 27.1829 27.1282 27.1829H28.2187C28.4404 27.1829 28.5586 27.2366 28.6207 27.3381C28.6473 27.3858 28.662 27.4664 28.662 27.541Z" fill="#0A0A0A"/>
<path d="M32.5637 29.1915V26.8486H32.085L31.1304 28.7766L30.1934 26.8486H29.7058V29.1915H30.0575V27.3888L30.9323 29.1915H31.3165L32.212 27.3888V29.1915H32.5637Z" fill="#0A0A0A"/>
<path d="M33.6017 28.6125H35.047L35.3425 29.1915H35.7385L34.5622 26.8486H34.1278L32.9131 29.1915H33.3002L33.6017 28.6125ZM34.8932 28.2812H33.7613L34.2312 27.3828L34.3347 27.165L34.4381 27.3828L34.8932 28.2812Z" fill="#0A0A0A"/>
<path d="M38.4006 29.1915V26.8486H38.0487V28.6691L36.5122 26.8486H36.0955V29.1915H36.4531V27.359L38.0017 29.1915H38.4006Z" fill="#0A0A0A"/>
<path d="M41.5892 28.3168H41.2047C41.1927 28.4242 41.1513 28.5317 41.0773 28.6123C40.9181 28.8003 40.6641 28.8809 40.274 28.8809C39.946 28.8809 39.5942 28.7883 39.4254 28.5466C39.337 28.4332 39.2805 28.2661 39.2805 28.0154C39.2805 27.7915 39.3195 27.6244 39.4047 27.511C39.5464 27.2812 39.8449 27.1618 40.2653 27.1618C40.6729 27.1618 40.93 27.2752 41.0662 27.4334C41.1426 27.5169 41.1872 27.6155 41.2015 27.7318H41.586C41.5741 27.6005 41.5327 27.4453 41.4443 27.314C41.2548 27.0305 40.9061 26.8066 40.2677 26.8066C39.6594 26.8066 39.2956 27.0036 39.0942 27.2991C38.9644 27.4692 38.8992 27.7079 38.8992 28.0124C38.8992 28.3526 38.9796 28.6034 39.1181 28.7794C39.3195 29.057 39.7064 29.2241 40.2916 29.2241C40.8918 29.2241 41.2493 29.0421 41.4268 28.7526C41.5271 28.6123 41.5773 28.4451 41.5892 28.3168Z" fill="#0A0A0A"/>
<path d="M44.2336 29.1915V28.8483H42.4305V28.1797H44.1628V27.8395H42.4305V27.1889H44.2129V26.8486H42.0698V29.1915H44.2336Z" fill="#0A0A0A"/>
<path d="M17.2051 31.5186L17.6471 32.8923H19.0775L17.9203 33.7414L18.3623 35.115L17.2051 34.2661L16.0479 35.115L16.49 33.7414L15.3328 32.8923H16.7631L17.2051 31.5186Z" fill="#0A0A0A"/>
<path d="M22.308 31.5186L22.759 32.8922H24.2186L23.0378 33.7413L23.4888 35.115L22.308 34.266L21.1272 35.115L21.5782 33.7413L20.3975 32.8922H21.857L22.308 31.5186Z" fill="#0A0A0A"/>
<path d="M27.3703 31.5186L27.8214 32.8922H29.2808L28.1001 33.7413L28.5511 35.115L27.3703 34.266L26.1895 35.115L26.6405 33.7413L25.4597 32.8922H26.9193L27.3703 31.5186Z" fill="#0A0A0A"/>
<path d="M32.4325 31.5186L32.8835 32.8922H34.3431L33.1623 33.7413L33.6133 35.115L32.4325 34.266L31.2518 35.115L31.7028 33.7413L30.522 32.8922H31.9815L32.4325 31.5186Z" fill="#0A0A0A"/>
<path d="M37.5353 31.5186L37.9771 32.8922H39.4077L38.2502 33.7413L38.692 35.115L37.5353 34.266L36.378 35.115L36.8201 33.7413L35.6628 32.8922H37.0932L37.5353 31.5186Z" fill="#0A0A0A"/>
<path d="M19.6844 8.3418L20.0186 9.38048H21.1001L20.2252 10.0224L20.5594 11.061L19.6844 10.4192L18.8095 11.061L19.1437 10.0224L18.2688 9.38048H19.3503L19.6844 8.3418Z" fill="#0A0A0A"/>
<path d="M23.5425 8.33984L23.8836 9.37853H24.987L24.0943 10.0205L24.4353 11.0591L23.5425 10.4171L22.6497 11.0591L22.9907 10.0205L22.0979 9.37853H23.2015L23.5425 8.33984Z" fill="#0A0A0A"/>
<path d="M27.3699 8.33984L27.7109 9.37853H28.8144L27.9217 10.0205L28.2626 11.0591L27.3699 10.4171L26.4771 11.0591L26.8181 10.0205L25.9253 9.37853H27.0288L27.3699 8.33984Z" fill="#0A0A0A"/>
<path d="M31.1983 8.33984L31.5392 9.37853H32.6428L31.75 10.0205L32.091 11.0591L31.1983 10.4171L30.3054 11.0591L30.6465 10.0205L29.7537 9.37853H30.8572L31.1983 8.33984Z" fill="#0A0A0A"/>
<path d="M35.0555 8.33984L35.3897 9.37853H36.4712L35.5963 10.0205L35.9305 11.0591L35.0555 10.4171L34.1806 11.0591L34.5148 10.0205L33.6399 9.37853H34.7213L35.0555 8.33984Z" fill="#0A0A0A"/>
<path fill-rule="evenodd" clip-rule="evenodd" d="M4.28028 27.0368C2.80543 17.7185 7.10979 8.4991 15.7269 4.54004L15.8064 4.71658C7.27601 8.63577 3.00724 17.7649 4.46992 27.0062C6.08815 37.23 14.2557 43.3616 24.2575 43.6573L24.2518 43.8512C14.1721 43.5532 5.91516 37.3661 4.28028 27.0368Z" fill="#0A0A0A"/>
<path d="M13.8584 6.91804C12.266 6.9547 10.4022 7.86153 9.30249 9.1787C10.1844 10.0057 11.6034 9.69997 12.6245 9.53082C14.082 9.28948 15.6318 8.82191 17.0071 8.16003C16.4416 6.94449 14.9184 6.89368 13.8584 6.91804Z" fill="#0A0A0A"/>
<path d="M12.6059 4.93381C11.6627 6.41756 10.5386 7.89221 9.31531 9.19081C8.29184 8.22062 8.90962 6.60608 9.32733 5.60205C10.084 3.78274 11.8983 2.21386 13.795 1.41113C14.3155 2.60715 13.1848 4.02312 12.6059 4.93381Z" fill="#0A0A0A"/>
<path d="M9.25023 11.0785C7.75913 11.6138 6.4778 13.1205 5.83447 14.6332C6.90666 15.1366 8.12557 14.4097 9.01729 13.9256C10.2417 13.2609 11.4909 12.3438 12.4737 11.2824C11.5857 10.3362 10.2372 10.7243 9.25023 11.0785Z" fill="#0A0A0A"/>
<path d="M7.44303 9.59621C7.11662 11.2885 6.56938 13.0425 5.85066 14.6412C4.59617 14.0437 4.64393 12.3325 4.69767 11.2435C4.78938 9.3847 5.81914 7.26504 7.25284 5.91797C8.13054 6.86822 7.65097 8.51821 7.44303 9.59621Z" fill="#0A0A0A"/>
<path d="M6.38095 16.4504C5.13848 17.4402 4.38536 19.2746 4.21094 20.9126C5.3863 21.0489 6.32578 19.9687 7.02484 19.2276C7.97658 18.2186 8.87753 16.953 9.44968 15.629C8.32925 15.0118 7.19027 15.8057 6.38095 16.4504Z" fill="#0A0A0A"/>
<path d="M4.22842 15.6157C4.44998 17.3246 4.45045 19.1734 4.22882 20.9157C2.86191 20.7462 2.40853 19.0888 2.14072 18.049C1.67835 16.2543 1.98835 13.9361 2.88906 12.1914C4.01467 12.8206 4.08687 14.5234 4.22842 15.6157Z" fill="#0A0A0A"/>
<path d="M5.40617 22.3141C4.42299 23.7685 4.07724 26.0477 4.5194 27.8797C5.81863 27.5691 6.46268 26.0836 6.97983 25.0346C7.6671 23.6403 8.24802 22.0137 8.45596 20.4178C7.04678 20.1217 6.0538 21.3559 5.40617 22.3141Z" fill="#0A0A0A"/>
<path d="M2.82517 22.1673C3.59118 23.9582 4.18897 25.9294 4.53878 27.8756C3.04871 28.1988 1.97628 26.6188 1.35326 25.5711C0.244047 23.7061 -0.0790909 21.1207 0.327239 18.8896C1.69104 19.1658 2.35841 21.0764 2.82517 22.1673Z" fill="#0A0A0A"/>
<path d="M6.09376 28.6422C5.56586 30.4065 5.93278 32.8051 7.00163 34.4638C8.1762 33.6915 8.33876 31.9918 8.50523 30.7731C8.72471 29.1649 8.82805 27.3834 8.55538 25.7158C7.05306 25.9095 6.44635 27.4636 6.09376 28.6422Z" fill="#0A0A0A"/>
<path d="M3.4831 29.3975C4.80113 30.9247 6.01694 32.666 7.01963 34.4523C5.65973 35.3096 4.06394 34.1384 3.09612 33.3095C1.37917 31.8392 0.264306 29.3401 0 26.9841C1.42884 26.7902 2.68804 28.4761 3.4831 29.3975Z" fill="#0A0A0A"/>
<path d="M8.86373 34.6466C8.97702 36.7002 10.301 38.8552 12.0639 40.0818C12.9153 38.9047 12.3816 37.1012 12.0912 35.8424C11.7002 34.1474 11.1591 32.3825 10.355 30.8164C8.95274 31.5647 8.78914 33.2941 8.86373 34.6466Z" fill="#0A0A0A"/>
<path d="M6.49276 36.3817C8.40269 37.4534 10.3071 38.7181 12.0778 40.0638C11.0174 41.4739 8.89786 40.9116 7.58397 40.4584C5.26859 39.6597 3.20438 37.5542 2.12622 35.215C3.49321 34.5039 5.36452 35.7486 6.49276 36.3817Z" fill="#0A0A0A"/>
<path d="M14.3034 39.6635C15.4497 41.7761 18.0619 43.1543 20.5219 43.4861C20.7866 41.9502 19.141 40.4296 18.2443 39.4348C16.9676 38.0185 15.6372 36.5488 14.1457 35.3242C13.0282 36.6345 13.619 38.4022 14.3034 39.6635Z" fill="#0A0A0A"/>
<path d="M12.6664 42.3419C15.2721 42.6155 17.922 43.0093 20.5263 43.4635C20.2776 45.4013 17.2325 45.714 15.85 45.8284C13.0155 46.063 9.86232 44.9124 7.66675 42.9754C8.75725 41.6796 11.2784 42.1962 12.6664 42.3419Z" fill="#0A0A0A"/>
<path d="M17.6852 2.91357C15.9358 3.41755 13.8881 4.37367 12.8765 6.13863C14.7127 5.93652 16.5174 5.27673 18.2822 4.77403C20.2591 4.21088 22.3407 3.78969 24.2547 3.01237C22.1585 2.1655 19.6876 2.33666 17.6852 2.91357Z" fill="#0A0A0A"/>
<path fill-rule="evenodd" clip-rule="evenodd" d="M51.5301 27.0062C52.9925 17.7649 48.7238 8.63593 40.1936 4.71658L40.2732 4.54004C48.8902 8.49918 53.1948 17.7185 51.7196 27.0368C50.0852 37.3661 41.828 43.5532 31.7482 43.8512L31.7427 43.6573C41.7444 43.3616 49.9116 37.23 51.5301 27.0062Z" fill="#0A0A0A"/>
<path d="M42.1415 6.91804C43.7337 6.9547 45.5974 7.86153 46.6976 9.1787C45.8155 10.0057 44.3961 9.69997 43.3755 9.53082C41.9178 9.28948 40.3678 8.82191 38.9929 8.16003C39.5582 6.94449 41.0811 6.89368 42.1415 6.91804Z" fill="#0A0A0A"/>
<path d="M43.3939 4.93381C44.3372 6.41756 45.4613 7.89221 46.6842 9.19081C47.7079 8.22062 47.0902 6.60608 46.6722 5.60205C45.9159 3.78274 44.1016 2.21386 42.2045 1.41113C41.6838 2.60715 42.8151 4.02312 43.3939 4.93381Z" fill="#0A0A0A"/>
<path d="M46.7503 11.0785C48.2414 11.6138 49.5223 13.1205 50.1655 14.6332C49.0932 15.1366 47.8744 14.4097 46.9827 13.9256C45.7583 13.2609 44.5092 12.3438 43.5269 11.2824C44.4145 10.3362 45.7631 10.7243 46.7503 11.0785Z" fill="#0A0A0A"/>
<path d="M48.5574 9.59621C48.8838 11.2885 49.4307 13.0425 50.1496 14.6412C51.4043 14.0437 51.3565 12.3325 51.3024 11.2435C51.2108 9.3847 50.1815 7.26504 48.7477 5.91797C47.8696 6.86822 48.3496 8.51821 48.5574 9.59621Z" fill="#0A0A0A"/>
<path d="M49.6187 16.4504C50.8614 17.4402 51.6145 19.2746 51.7889 20.9126C50.6138 21.0489 49.6744 19.9687 48.9755 19.2276C48.0233 18.2186 47.1221 16.953 46.5505 15.629C47.6707 15.0118 48.8099 15.8057 49.6187 16.4504Z" fill="#0A0A0A"/>
<path d="M51.7722 15.6157C51.55 17.3244 51.55 19.1734 51.7714 20.9157C53.1383 20.7462 53.592 19.0888 53.8595 18.049C54.3221 16.2543 54.0116 13.9361 53.1112 12.1914C51.9855 12.8206 51.9131 14.5234 51.7722 15.6157Z" fill="#0A0A0A"/>
<path d="M50.5938 22.3141C51.577 23.7685 51.9225 26.0477 51.4807 27.8797C50.1814 27.5691 49.5374 26.0837 49.0199 25.0346C48.3329 23.6403 47.7517 22.0137 47.5439 20.4178C48.953 20.1217 49.9466 21.3559 50.5938 22.3141Z" fill="#0A0A0A"/>
<path d="M53.1749 22.1673C52.409 23.9582 51.8112 25.9294 51.4617 27.8756C52.9512 28.1988 54.0235 26.6188 54.6469 25.5711C55.7558 23.7061 56.0791 21.1207 55.673 18.8896C54.3093 19.1658 53.6414 21.0764 53.1749 22.1673Z" fill="#0A0A0A"/>
<path d="M49.9058 28.6422C50.4336 30.4065 50.0674 32.8051 48.9983 34.4638C47.824 33.6915 47.6608 31.9918 47.4944 30.7731C47.2755 29.1649 47.172 27.3834 47.4443 25.7158C48.9465 25.9095 49.5531 27.4636 49.9058 28.6422Z" fill="#0A0A0A"/>
<path d="M52.5163 29.3975C51.1987 30.9248 49.9831 32.666 48.98 34.4523C50.3397 35.3096 51.9359 34.1384 52.904 33.3095C54.6204 31.8392 55.7357 29.3401 56 26.9841C54.571 26.7902 53.3116 28.4761 52.5163 29.3975Z" fill="#0A0A0A"/>
<path d="M47.1357 34.6466C47.0226 36.7002 45.6987 38.8552 43.9361 40.0818C43.0843 38.9047 43.6185 37.1013 43.9083 35.8424C44.2991 34.1474 44.8405 32.3825 45.6446 30.8164C47.0473 31.5647 47.2105 33.2941 47.1357 34.6466Z" fill="#0A0A0A"/>
<path d="M49.507 36.3817C47.5972 37.4534 45.6929 38.7181 43.9224 40.0638C44.9828 41.4739 47.102 40.9116 48.4156 40.4584C50.7314 39.6597 52.7957 37.5542 53.8736 35.215C52.5067 34.5039 50.6351 35.7486 49.507 36.3817Z" fill="#0A0A0A"/>
<path d="M41.6966 39.6635C40.5502 41.7761 37.9382 43.1543 35.4779 43.4861C35.2132 41.9502 36.8587 40.4296 37.7559 39.4348C39.0321 38.0185 40.3623 36.5488 41.8542 35.3242C42.972 36.6345 42.3805 38.4022 41.6966 39.6635Z" fill="#0A0A0A"/>
<path d="M43.3331 42.3419C40.7275 42.6155 38.0781 43.0093 35.4734 43.4635C35.7221 45.4013 38.7675 45.714 40.1495 45.8284C42.9844 46.063 46.1378 44.9124 48.3327 42.9754C47.2428 41.6796 44.7215 42.1962 43.3331 42.3419Z" fill="#0A0A0A"/>
<path d="M38.3149 2.91357C40.0639 3.41755 42.1123 4.37367 43.1233 6.13863C41.2875 5.93652 39.4828 5.27673 37.7178 4.77403C35.7409 4.21088 33.6593 3.78969 31.7454 3.01237C33.8416 2.1655 36.3124 2.33666 38.3149 2.91357Z" fill="#0A0A0A"/>
<path d="M29.1377 2.00011L28.2401 0L27.3593 1.96289L25.311 0.68045L26.6272 3.47356H29.9005L31.1691 0.68045L29.1377 2.00011Z" fill="#0A0A0A"/>
<path d="M29.8795 3.90723H26.6011V4.39578H29.8795V3.90723Z" fill="#0A0A0A"/>
<path d="M28.4745 41.7021L29.0028 43.3439H30.7123L29.3293 44.3586L29.8575 46.0004L28.4745 44.9857L27.0915 46.0004L27.6198 44.3586L26.2368 43.3439H27.9463L28.4745 41.7021Z" fill="#0A0A0A"/>
</g>
</svg>
